# xmcd
#
# Track frame offsets:
#	150
#	14717
#	32365
#	45630
#	55895
#	67125
#	82197
#	94882
#	111780
#	123577
#	136377
#
# Disc length: 1991 seconds
#
# Revision: 0
# Processed by: cddbd v1.4PL0 Copyright (c) Steve Scherf et al.
# Submitted via: dBpowerAMP V4.0
#
DISCID=9d07c50b
DTITLE=Jodle Birge - Golden Sound Of Nashville Vol. 2
DYEAR=1900
DGENRE=Danish
TTITLE0=Garden Full Of Roses
TTITLE1=Love From A New
TTITLE2=Hello Love
TTITLE3=Indebted To Your Love
TTITLE4=Three Steps To The Phone
TTITLE5=I Love You
TTITLE6=Make Up Your Mind
TTITLE7=Derby's Castle
TTITLE8=Yellow Moon
TTITLE9=What's Your Mama's Name
TTITLE10=Welcome To My World
EXTD=
EXTT0=
EXTT1=
EXTT2=
EXTT3=
EXTT4=
EXTT5=
EXTT6=
EXTT7=
EXTT8=
EXTT9=
EXTT10=
PLAYORDER=
